<?xml version="1.0" encoding="iso-8859-1"?>
<!-- Generator: Adobe Illustrator 25.4.1, SVG Export Plug-In . SVG Version: 6.00 Build 0)  -->
<svg version="1.1" id="Layer_1" xmlns="http://www.w3.org/2000/svg" xmlns:xlink="http://www.w3.org/1999/xlink" x="0px" y="0px"
	 viewBox="0 0 68.687 36.125" style="enable-background:new 0 0 68.687 36.125;" xml:space="preserve">
<g>
	<path style="fill:#DF216A;" d="M18.794,25.031c0.276,0.039,0.552,0.112,0.828,0.111c12.896-0.068,25.792-0.144,38.688-0.214
		c0.312-0.002,0.623,0.047,0.935,0.072c0,0.072,0,0.145,0,0.217c-0.265,0.024-0.529,0.069-0.794,0.07
		c-12.801,0.075-25.601,0.146-38.402,0.217c-0.072,0-0.143-0.002-0.215-0.001c-0.924,0.004-0.923,0.004-0.762,0.907
		c0.029,0.161,0.046,0.323,0.092,0.657c-0.432-0.287-0.76-0.496-1.077-0.719c-1.523-1.071-3.052-2.134-4.558-3.228
		c-0.404-0.293-0.721-0.32-1.162-0.069c-1.743,0.991-3.507,1.945-5.266,2.909c-0.205,0.112-0.422,0.203-0.783,0.374
		c0.074-0.393,0.112-0.659,0.176-0.919c0.523-2.132,1.042-4.266,1.583-6.394c0.118-0.464,0.047-0.801-0.301-1.156
		c-1.504-1.534-2.981-3.094-4.466-4.647c-0.177-0.185-0.342-0.383-0.626-0.705c0.967-0.096,1.783-0.183,2.6-0.256
		c1.403-0.125,2.806-0.254,4.211-0.355c0.464-0.033,0.721-0.229,0.898-0.662c0.785-1.922,1.598-3.833,2.405-5.747
		c0.128-0.304,0.275-0.601,0.496-1.084c0.159,0.429,0.27,0.695,0.358,0.97c0.611,1.91,1.228,3.817,1.815,5.734
		c0.143,0.467,0.342,0.714,0.875,0.742c3.05,0.16,6.099,0.505,9.149,0.508c10.866,0.008,21.732-0.097,32.599-0.155
		c0.358-0.002,0.717,0.037,1.075,0.058c0,0.075,0.001,0.15,0.001,0.225c-0.31,0.02-0.62,0.057-0.93,0.058
		c-11.487,0.064-22.974,0.124-34.461,0.193c-0.36,0.002-0.719,0.099-1.079,0.151c0.012,0.109,0.024,0.217,0.036,0.326
		c12.142-0.067,24.284-0.134,36.426-0.202c0.007,0.092,0.014,0.184,0.022,0.275c-0.296,0.032-0.591,0.089-0.887,0.091
		c-6.305,0.04-12.609,0.073-18.914,0.108c-5.517,0.031-11.033,0.069-16.55,0.086c-0.524,0.002-0.894,0.166-1.244,0.55
		c-1.207,1.322-2.435,2.625-3.673,3.917c-0.328,0.343-0.444,0.68-0.338,1.155c0.334,1.49,0.643,2.987,0.931,4.487
		c0.094,0.488,0.308,0.661,0.816,0.658c12.968-0.086,25.935-0.158,38.903-0.229c0.338-0.002,0.676,0.032,1.013,0.049
		c0.004,0.072,0.007,0.143,0.011,0.215c-0.235,0.024-0.47,0.067-0.705,0.069c-12.968,0.076-25.935,0.148-38.903,0.225
		c-0.28,0.002-0.56,0.063-0.84,0.097C18.795,24.856,18.794,24.944,18.794,25.031z M3.869,12.957
		c0.188,0.254,0.248,0.354,0.326,0.437c1.319,1.381,2.626,2.773,3.97,4.129c0.435,0.439,0.558,0.842,0.39,1.458
		c-0.508,1.864-0.944,3.747-1.401,5.624c-0.046,0.187-0.046,0.386-0.085,0.742c1.515-0.84,2.876-1.595,4.237-2.351
		c-0.005-0.099-0.01-0.197-0.015-0.296c-0.409-0.078-0.827-0.246-1.226-0.209c-0.422,0.039-0.825,0.272-1.33,0.454
		c1.114-1.843,2.583-3.201,4.381-4.43c-0.992-0.417-1.827-0.768-2.849-1.198c0.005,0.864,0.093,1.539-0.01,2.182
		c-0.123,0.77-0.929,0.795-1.481,1.128c0.228-1.886,0.521-3.72,0.836-5.551c0.031-0.179,0.195-0.334,0.394-0.657
		c0.258,0.503,0.433,0.845,0.714,1.392c0.311-0.542,0.635-0.948,0.775-1.411c0.086-0.284-0.108-0.653-0.176-0.984
		c-0.323,0.084-0.699,0.091-0.957,0.27c-0.419,0.289-0.76,0.69-1.186,1.093c0.001-0.911,0.215-1.309,0.963-1.893
		c0.736-0.575,1.554-0.724,2.042-0.371c0.519,0.376,0.651,1.133,0.25,2.037c-0.276,0.623-0.674,1.193-1.082,1.898
		c0.736,0.437,1.467,0.924,2.248,1.31c0.347,0.172,0.794,0.19,1.196,0.193c0.624,0.004,1.248-0.065,1.872-0.103
		c-0.287,0.249-0.59,0.312-0.88,0.414c-0.219,0.077-0.608,0.219-0.601,0.306c0.053,0.652-0.375,0.507-0.74,0.525
		c-0.153,0.008-0.33,0.071-0.448,0.168c-1.044,0.854-1.677,1.968-2.053,3.362c0.845-0.763,1.458-0.263,2.108,0.214
		c1.155,0.847,2.333,1.661,3.506,2.484c0.226,0.158,0.47,0.29,0.859,0.529c-0.053-0.446-0.067-0.72-0.122-0.987
		c-0.402-1.964-0.804-3.928-1.226-5.888c-0.1-0.466,0-0.793,0.343-1.147c1.329-1.371,2.62-2.779,3.922-4.177
		c0.189-0.203,0.355-0.427,0.619-0.746c-0.357-0.055-0.579-0.104-0.805-0.122c-1.595-0.123-3.192-0.215-4.784-0.372
		c-0.56-0.055-0.797,0.096-0.818,0.659c-0.017,0.45-0.033,0.937-0.69,1.057c-0.105-0.143-0.228-0.312-0.426-0.582
		c-0.274,0.357-0.51,0.59-0.657,0.869c-0.372,0.704-0.328,1.501,0.057,1.803c0.417,0.326,1.102,0.187,1.739-0.405
		c0.376-0.35,0.702-0.753,1.187-1.28c-0.183,1.09-0.748,1.711-1.394,2.267c-0.549,0.473-1.174,0.632-1.853,0.269
		c-0.699-0.374-0.948-0.999-0.859-1.745c0.157-1.327,0.918-2.239,2.124-2.744c0.503-0.211,0.565-0.462,0.413-0.928
		c-0.571-1.747-1.116-3.502-1.679-5.251c-0.053-0.164-0.163-0.31-0.292-0.551c-0.135,0.262-0.229,0.421-0.301,0.589
		c-0.616,1.449-1.349,2.864-1.805,4.362c-0.407,1.338-1.16,1.745-2.475,1.758C7.095,12.577,5.557,12.807,3.869,12.957z"/>
	<path style="fill:#DF216A;" d="M21.834,23.06c0.432-0.689,0.765-1.29,1.175-1.831c0.121-0.16,0.462-0.207,0.705-0.213
		c1.408-0.034,2.817-0.032,4.225-0.061c0.281-0.006,0.616-0.019,0.824-0.169c0.214-0.155,0.437-0.498,0.408-0.728
		c-0.025-0.201-0.383-0.495-0.611-0.513c-0.831-0.064-1.669-0.018-2.504-0.033c-0.787-0.014-1.578-0.005-2.358-0.089
		c-1.29-0.138-2.003-0.848-2.078-1.969c-0.088-1.299,0.647-2.448,1.818-2.752c0.456-0.118,0.943-0.154,1.417-0.159
		c4.035-0.04,8.069-0.065,12.104-0.091c0.278-0.002,0.557,0.034,0.979,0.062c-0.353,0.692-0.612,1.305-0.975,1.849
		c-0.112,0.167-0.506,0.195-0.773,0.202c-1.54,0.037-1.54,0.028-1.535,1.584c0.004,1.361-0.009,2.722,0.022,4.082
		c0.012,0.528-0.101,0.775-0.703,0.755c-1.498-0.05-1.331,0.212-1.346-1.327c-0.015-1.456-0.033-2.913-0.019-4.369
		c0.005-0.523-0.177-0.716-0.709-0.708c-2.339,0.035-4.679,0.039-7.019,0.057c-0.166,0.001-0.358-0.015-0.49,0.061
		c-0.162,0.092-0.275,0.273-0.409,0.415c0.132,0.122,0.246,0.298,0.402,0.353c0.194,0.069,0.423,0.048,0.637,0.047
		c1.194-0.002,2.388-0.025,3.581-0.012c1.441,0.015,2.565,0.958,2.724,2.252c0.188,1.528-0.623,2.769-2.101,3.111
		c-0.622,0.144-1.273,0.198-1.913,0.214c-1.503,0.038-3.008,0.031-4.512,0.035C22.523,23.119,22.248,23.086,21.834,23.06z"/>
	<path style="fill:#DF216A;" d="M55.851,20.039c0.961,0.915,1.805,1.718,2.648,2.521c-0.006,0.061-0.012,0.121-0.018,0.182
		c-0.718,0.004-1.444-0.059-2.151,0.029c-0.876,0.109-1.433-0.34-1.852-0.961c-0.955-1.414-2.359-1.303-3.766-1.192
		c-0.157,0.012-0.298,0.274-0.437,0.428c-0.024,0.027-0.003,0.093-0.007,0.14c-0.037,0.515,0.07,1.392-0.139,1.475
		c-0.603,0.241-1.333,0.161-2.116,0.214c-0.007-1.328-0.038-2.536,0.009-3.742c0.006-0.149,0.419-0.4,0.649-0.405
		c1.766-0.044,3.534-0.042,5.301-0.047c0.513-0.002,0.948-0.121,1.165-0.646c0.339-0.82-0.15-1.524-1.091-1.524
		c-2.484,0-4.968-0.015-7.45,0.051c-0.731,0.019-1.165-0.187-1.445-0.846c-0.174-0.41-0.425-0.788-0.705-1.294
		c0.382-0.025,0.655-0.056,0.928-0.058c2.77-0.017,5.541-0.057,8.311-0.022c0.672,0.009,1.387,0.164,2.002,0.435
		c1.92,0.846,2.321,3.121,0.869,4.635C56.377,19.598,56.17,19.756,55.851,20.039z"/>
	<path style="fill:#DF216A;" d="M47.459,22.933c-1.216,0.007-2.312,0.03-3.405,0c-0.163-0.004-0.409-0.229-0.462-0.4
		c-0.176-0.568-0.324-1.152-0.393-1.741c-0.029-0.242,0.146-0.523,0.271-0.765c0.118-0.227,0.291-0.426,0.484-0.699
		c-0.61-0.174-1.299-0.182-1.674-0.529c-0.391-0.362-0.48-1.052-0.809-1.669c-0.43,1.146-0.768,2.364-2.478,2.131
		c1.314,1.156,0.758,2.409,0.509,3.675c-1.175,0.007-2.33,0.013-3.621,0.02c0.361-0.769,0.681-1.452,1.002-2.134
		c0.903-1.921,1.818-3.836,2.7-5.766c0.215-0.47,0.505-0.6,1.017-0.686c1.587-0.267,2.441,0.386,3.128,1.8
		c1.029,2.12,2.29,4.126,3.451,6.182C47.259,22.495,47.321,22.646,47.459,22.933z"/>
	<path style="fill:#DF216A;" d="M59.731,18.205c-0.008-0.589,0.585-1.203,1.181-1.224c0.608-0.021,1.264,0.63,1.244,1.235
		c-0.019,0.591-0.637,1.195-1.218,1.189C60.355,19.399,59.739,18.786,59.731,18.205z M60.936,19.126
		c0.579,0.004,0.941-0.35,0.942-0.923c0.001-0.579-0.353-0.941-0.925-0.944c-0.578-0.004-0.939,0.35-0.943,0.924
		C60.007,18.758,60.364,19.122,60.936,19.126z"/>
	<path style="fill:#FFFFFF;" d="M3.869,12.957c1.688-0.15,3.226-0.38,4.766-0.395c1.315-0.012,2.068-0.42,2.475-1.758
		c0.456-1.498,1.189-2.913,1.805-4.362c0.072-0.168,0.166-0.327,0.301-0.589c0.13,0.24,0.239,0.386,0.292,0.551
		c0.563,1.749,1.108,3.505,1.679,5.251c0.152,0.466,0.09,0.718-0.413,0.928c-1.206,0.505-1.967,1.416-2.124,2.744
		c-0.088,0.745,0.16,1.371,0.859,1.745c0.679,0.363,1.303,0.204,1.853-0.269c0.646-0.556,1.211-1.177,1.394-2.267
		c-0.485,0.528-0.811,0.931-1.187,1.28c-0.636,0.592-1.322,0.732-1.739,0.405c-0.386-0.302-0.43-1.099-0.057-1.803
		c0.148-0.279,0.383-0.512,0.657-0.869c0.198,0.27,0.321,0.439,0.426,0.582c0.656-0.12,0.673-0.607,0.69-1.057
		c0.021-0.563,0.258-0.714,0.818-0.659c1.591,0.156,3.189,0.248,4.784,0.372c0.225,0.017,0.448,0.067,0.805,0.122
		c-0.264,0.32-0.43,0.544-0.619,0.746c-1.301,1.398-2.593,2.806-3.922,4.177c-0.343,0.354-0.443,0.681-0.343,1.147
		c0.422,1.96,0.824,3.924,1.226,5.888c0.055,0.266,0.068,0.541,0.122,0.987c-0.39-0.239-0.634-0.371-0.859-0.529
		c-1.173-0.822-2.351-1.637-3.506-2.484c-0.65-0.477-1.264-0.976-2.108-0.214c0.376-1.394,1.008-2.508,2.053-3.362
		c0.118-0.097,0.295-0.16,0.448-0.168c0.365-0.018,0.793,0.126,0.74-0.525c-0.007-0.087,0.381-0.229,0.601-0.306
		c0.289-0.102,0.592-0.164,0.88-0.414c-0.624,0.038-1.248,0.107-1.872,0.103c-0.402-0.003-0.849-0.021-1.196-0.193
		c-0.781-0.387-1.512-0.873-2.248-1.31c0.408-0.705,0.805-1.275,1.082-1.898c0.401-0.905,0.269-1.662-0.25-2.037
		c-0.487-0.353-1.306-0.204-2.042,0.371c-0.748,0.584-0.962,0.982-0.963,1.893c0.426-0.403,0.767-0.804,1.186-1.093
		c0.258-0.178,0.634-0.186,0.957-0.27c0.068,0.331,0.262,0.7,0.176,0.984c-0.141,0.462-0.465,0.869-0.775,1.411
		c-0.281-0.548-0.456-0.89-0.714-1.392c-0.199,0.323-0.363,0.479-0.394,0.657c-0.315,1.831-0.608,3.665-0.836,5.551
		c0.552-0.333,1.358-0.358,1.481-1.128c0.103-0.644,0.015-1.318,0.01-2.182c1.022,0.43,1.857,0.781,2.849,1.198
		c-1.798,1.229-3.267,2.587-4.381,4.43c0.504-0.182,0.908-0.415,1.33-0.454c0.399-0.037,0.817,0.131,1.226,0.209
		c0.005,0.099,0.01,0.197,0.015,0.296c-1.361,0.755-2.722,1.51-4.237,2.351c0.039-0.356,0.039-0.555,0.085-0.742
		c0.457-1.877,0.893-3.761,1.401-5.624c0.168-0.616,0.045-1.018-0.39-1.458c-1.344-1.356-2.651-2.749-3.97-4.129
		C4.117,13.311,4.057,13.211,3.869,12.957z"/>
	<path style="fill:#DF216A;" d="M60.936,19.126c-0.572-0.004-0.929-0.368-0.926-0.943c0.003-0.573,0.365-0.927,0.943-0.924
		c0.572,0.004,0.926,0.365,0.925,0.944C61.877,18.776,61.516,19.13,60.936,19.126z M61.345,18.85
		c0.035-0.028,0.069-0.057,0.104-0.085c-0.068-0.162-0.238-0.368-0.189-0.48c0.432-0.996-0.342-0.636-0.76-0.744
		c0.003,0.463,0.005,0.869,0.008,1.498c0.249-0.282,0.36-0.407,0.466-0.528C61.095,18.622,61.22,18.736,61.345,18.85z"/>
</g>
</svg>
